<svg width="34" height="34" viewBox="0 0 32 30" fill="none" xmlns="http://www.w3.org/2000/svg">
    <g id="fa6-solid:kitchen-set" clip-path="url(#clip0_73_60)">
        <path id="Vector"
              d="M14.1176 8.47059C14.1176 6.9729 13.5227 5.53654 12.4637 4.47752C11.4046 3.41849 9.96828 2.82353 8.47059 2.82353C6.9729 2.82353 5.53654 3.41849 4.47751 4.47752C3.41849 5.53654 2.82353 6.9729 2.82353 8.47059C2.82353 9.96828 3.41849 11.4046 4.47751 12.4637C5.53654 13.5227 6.9729 14.1176 8.47059 14.1176C9.96828 14.1176 11.4046 13.5227 12.4637 12.4637C13.5227 11.4046 14.1176 9.96828 14.1176 8.47059ZM16.7294 10.3529C15.8765 14.1235 12.5 16.9412 8.47059 16.9412C3.79412 16.9412 0 13.1471 0 8.47059C0 3.79412 3.79412 0 8.47059 0C12.5 0 15.8765 2.81765 16.7294 6.58824H20.9529C21.4706 6.01177 22.2235 5.64706 23.0588 5.64706H29.1765C30.7353 5.64706 32 6.91177 32 8.47059C32 10.0294 30.7353 11.2941 29.1765 11.2941H23.0588C22.2235 11.2941 21.4706 10.9294 20.9529 10.3529H16.7294ZM8.47059 4.70588C9.46905 4.70588 10.4266 5.10252 11.1326 5.80854C11.8387 6.51456 12.2353 7.47213 12.2353 8.47059C12.2353 9.46905 11.8387 10.4266 11.1326 11.1326C10.4266 11.8387 9.46905 12.2353 8.47059 12.2353C7.47213 12.2353 6.51456 11.8387 5.80854 11.1326C5.10252 10.4266 4.70588 9.46905 4.70588 8.47059C4.70588 7.47213 5.10252 6.51456 5.80854 5.80854C6.51456 5.10252 7.47213 4.70588 8.47059 4.70588ZM23.5294 14.1176C24.3118 14.1176 24.9412 14.7471 24.9412 15.5294V16H30.5882C31.3706 16 32 16.6294 32 17.4118C32 18.1941 31.3706 18.8235 30.5882 18.8235H16.4706C15.6882 18.8235 15.0588 18.1941 15.0588 17.4118C15.0588 16.6294 15.6882 16 16.4706 16H22.1176V15.5294C22.1176 14.7471 22.7471 14.1176 23.5294 14.1176ZM16.9412 27.2941V20.7059H30.1176V27.2941C30.1176 28.8529 28.8529 30.1176 27.2941 30.1176H19.7647C18.2059 30.1176 16.9412 28.8529 16.9412 27.2941ZM2.82353 18.8235H10.3529C11.9118 18.8235 13.1765 20.0882 13.1765 21.6471C13.1765 23.2059 11.9118 24.4706 10.3529 24.4706H9.41177C9.41177 25.5118 8.57059 26.3529 7.52941 26.3529H3.76471C2.72353 26.3529 1.88235 25.5118 1.88235 24.4706V19.7647C1.88235 19.2471 2.30588 18.8235 2.82353 18.8235ZM10.3529 22.5882C10.8706 22.5882 11.2941 22.1647 11.2941 21.6471C11.2941 21.1294 10.8706 20.7059 10.3529 20.7059H9.41177V22.5882H10.3529ZM1.41176 27.2941H11.7647C12.5471 27.2941 13.1765 27.9235 13.1765 28.7059C13.1765 29.4882 12.5471 30.1176 11.7647 30.1176H1.41176C0.629412 30.1176 0 29.4882 0 28.7059C0 27.9235 0.629412 27.2941 1.41176 27.2941Z"
              fill="white"/>
    </g>
    <defs>
        <clipPath id="clip0_73_60">
            <rect width="32" height="30" fill="white"/>
        </clipPath>
    </defs>
</svg>
