<svg width="38" height="38" viewBox="0 0 32 33" fill="none" xmlns="http://www.w3.org/2000/svg">
<path d="M15.5 3.2666C13.6435 3.2666 11.863 4.0041 10.5503 5.31685C9.2375 6.62961 8.5 8.41009 8.5 10.2666C8.5 14.1266 12.445 15.2036 12.723 19.7666H18.276C18.554 15.2036 22.5 14.1266 22.5 10.2666C22.5 8.41009 21.7625 6.62961 20.4497 5.31685C19.137 4.0041 17.3565 3.2666 15.5 3.2666ZM15.5 28.5996C17.394 28.5996 17.983 27.5726 18.167 26.9336H12.833C13.017 27.5736 13.606 28.5996 15.5 28.5996ZM12.75 25.9316H18.25V20.7676H12.75V25.9316Z" fill="white"/>
</svg>
