<svg width="38" height="37" viewBox="0 0 34 37" fill="none" xmlns="http://www.w3.org/2000/svg">
<g id="la:solar-panel" clip-path="url(#clip0_73_62)">
<path id="Vector" d="M14.6667 4.43359V7.89226L12.2493 5.51626L10.4173 7.34959L12.7893 9.76693H9.33333V12.4336H12.792L10.4173 14.8509L12.2493 16.6829L14.6667 14.3109V17.7669H17.3333V14.3083L19.7507 16.6829L21.584 14.8509L19.2067 12.4336H22.6667V9.76693H19.208L21.584 7.34959L19.7507 5.51626L17.3333 7.89359V4.43359H14.6667ZM16 8.43359C17.4693 8.43359 18.6667 9.63093 18.6667 11.1003C18.6667 12.5696 17.4693 13.7669 16 13.7669C14.5307 13.7669 13.3333 12.5696 13.3333 11.1003C13.3333 9.63093 14.5307 8.43359 16 8.43359ZM2.95867 20.4336L0 32.2669V36.4336H32V32.2669L29.0413 20.4336H2.95867ZM5.04133 23.1003H26.96L29.3333 32.6003V33.7669H2.66667V32.6003L5.04133 23.1003ZM6.66667 24.4336L6.12533 26.8509H8.91733L9.33333 24.4336H6.66667ZM12 24.4336L11.7493 26.8509H14.5413L14.6667 24.4336H12ZM17.3333 24.4336L17.4587 26.8509H20.2493L20 24.4336H17.3333ZM22.6667 24.4336L23.084 26.8509H25.8747L25.3333 24.4336H22.6667ZM5.58267 29.5176L5.08533 32.4336H8.12533L8.54267 29.5163L5.58267 29.5176ZM11.5827 29.5176L11.3333 32.4336H14.4173L14.5413 29.5163L11.5827 29.5176ZM17.4587 29.5176L17.5827 32.4336H20.6667L20.416 29.5163L17.4587 29.5176ZM23.4587 29.5176L23.8747 32.4336H26.9173L26.4173 29.5163L23.4587 29.5176Z" fill="white"/>
</g>
<defs>
<clipPath id="clip0_73_62">
<rect width="33" height="36" fill="white" transform="translate(0.5 0.433594)"/>
</clipPath>
</defs>
</svg>
