<svg width="136" height="25" viewBox="0 0 136 25" fill="none" xmlns="http://www.w3.org/2000/svg">
<path d="M22.6667 12.1203C22.9145 11.9357 23.0982 11.6782 23.1923 11.3839C23.2863 11.0896 23.2859 10.7732 23.1911 10.4792C23.0962 10.1851 22.9118 9.92809 22.6635 9.74418C22.4152 9.56026 22.1156 9.45866 21.8067 9.45361L15.8067 9.22694C15.7772 9.22491 15.7489 9.21438 15.7252 9.19664C15.7016 9.1789 15.6836 9.15469 15.6733 9.12694L13.6 3.52694C13.4958 3.24204 13.3066 2.99602 13.058 2.82221C12.8094 2.64839 12.5134 2.55518 12.21 2.55518C11.9067 2.55518 11.6106 2.64839 11.362 2.82221C11.1134 2.99602 10.9242 3.24204 10.82 3.52694L8.75335 9.14694C8.74313 9.17469 8.72511 9.1989 8.70145 9.21664C8.6778 9.23438 8.64952 9.24491 8.62002 9.24694L2.62002 9.47361C2.31109 9.47866 2.01148 9.58026 1.76321 9.76418C1.51494 9.94809 1.33046 10.2051 1.23562 10.4992C1.14079 10.7932 1.14036 11.1096 1.23441 11.4039C1.32845 11.6982 1.51224 11.9557 1.76002 12.1403L6.46668 15.8403C6.49024 15.8588 6.50784 15.8839 6.51732 15.9123C6.5268 15.9407 6.52774 15.9713 6.52001 16.0003L4.90002 21.7403C4.81607 22.0326 4.8242 22.3436 4.92331 22.6311C5.02242 22.9187 5.20769 23.1687 5.45391 23.3471C5.70014 23.5256 5.99538 23.6239 6.29945 23.6286C6.60353 23.6334 6.90168 23.5443 7.15335 23.3736L12.1267 20.0403C12.1512 20.0234 12.1802 20.0143 12.21 20.0143C12.2398 20.0143 12.2689 20.0234 12.2933 20.0403L17.2667 23.3736C17.5149 23.5502 17.812 23.645 18.1167 23.645C18.4213 23.645 18.7184 23.5502 18.9667 23.3736C19.213 23.1968 19.3984 22.948 19.4975 22.6615C19.5966 22.375 19.6045 22.0648 19.52 21.7736L17.8867 16.0136C17.878 15.9847 17.8785 15.9538 17.888 15.9252C17.8976 15.8965 17.9157 15.8716 17.94 15.8536L22.6667 12.1203Z" fill="#FFA800" fill-opacity="0.8"/>
<path d="M50.6667 12.1203C50.9145 11.9357 51.0982 11.6782 51.1923 11.3839C51.2863 11.0896 51.2859 10.7732 51.1911 10.4792C51.0962 10.1851 50.9118 9.92809 50.6635 9.74418C50.4152 9.56026 50.1156 9.45866 49.8067 9.45361L43.8067 9.22694C43.7772 9.22491 43.7489 9.21438 43.7252 9.19664C43.7016 9.1789 43.6836 9.15469 43.6733 9.12694L41.6 3.52694C41.4958 3.24204 41.3066 2.99602 41.058 2.82221C40.8094 2.64839 40.5134 2.55518 40.21 2.55518C39.9067 2.55518 39.6106 2.64839 39.362 2.82221C39.1134 2.99602 38.9242 3.24204 38.82 3.52694L36.7533 9.14694C36.7431 9.17469 36.7251 9.1989 36.7015 9.21664C36.6778 9.23438 36.6495 9.24491 36.62 9.24694L30.62 9.47361C30.3111 9.47866 30.0115 9.58026 29.7632 9.76418C29.5149 9.94809 29.3305 10.2051 29.2356 10.4992C29.1408 10.7932 29.1404 11.1096 29.2344 11.4039C29.3284 11.6982 29.5122 11.9557 29.76 12.1403L34.4667 15.8403C34.4902 15.8588 34.5078 15.8839 34.5173 15.9123C34.5268 15.9407 34.5277 15.9713 34.52 16.0003L32.9 21.7403C32.8161 22.0326 32.8242 22.3436 32.9233 22.6311C33.0224 22.9187 33.2077 23.1687 33.4539 23.3471C33.7001 23.5256 33.9954 23.6239 34.2995 23.6286C34.6035 23.6334 34.9017 23.5443 35.1533 23.3736L40.1267 20.0403C40.1512 20.0234 40.1802 20.0143 40.21 20.0143C40.2398 20.0143 40.2689 20.0234 40.2933 20.0403L45.2667 23.3736C45.5149 23.5502 45.812 23.645 46.1167 23.645C46.4213 23.645 46.7184 23.5502 46.9667 23.3736C47.213 23.1968 47.3984 22.948 47.4975 22.6615C47.5966 22.375 47.6045 22.0648 47.52 21.7736L45.8867 16.0136C45.878 15.9847 45.8785 15.9538 45.888 15.9252C45.8976 15.8965 45.9157 15.8716 45.94 15.8536L50.6667 12.1203Z" fill="#FFA800" fill-opacity="0.8"/>
<path d="M78.6667 12.1203C78.9145 11.9357 79.0982 11.6782 79.1923 11.3839C79.2863 11.0896 79.2859 10.7732 79.1911 10.4792C79.0962 10.1851 78.9118 9.92809 78.6635 9.74418C78.4152 9.56026 78.1156 9.45866 77.8067 9.45361L71.8067 9.22694C71.7772 9.22491 71.7489 9.21438 71.7252 9.19664C71.7016 9.1789 71.6836 9.15469 71.6733 9.12694L69.6 3.52694C69.4958 3.24204 69.3066 2.99602 69.058 2.82221C68.8094 2.64839 68.5134 2.55518 68.21 2.55518C67.9067 2.55518 67.6106 2.64839 67.362 2.82221C67.1134 2.99602 66.9242 3.24204 66.82 3.52694L64.7533 9.14694C64.7431 9.17469 64.7251 9.1989 64.7015 9.21664C64.6778 9.23438 64.6495 9.24491 64.62 9.24694L58.62 9.47361C58.3111 9.47866 58.0115 9.58026 57.7632 9.76418C57.5149 9.94809 57.3305 10.2051 57.2356 10.4992C57.1408 10.7932 57.1404 11.1096 57.2344 11.4039C57.3284 11.6982 57.5122 11.9557 57.76 12.1403L62.4667 15.8403C62.4902 15.8588 62.5078 15.8839 62.5173 15.9123C62.5268 15.9407 62.5277 15.9713 62.52 16.0003L60.9 21.7403C60.8161 22.0326 60.8242 22.3436 60.9233 22.6311C61.0224 22.9187 61.2077 23.1687 61.4539 23.3471C61.7001 23.5256 61.9954 23.6239 62.2995 23.6286C62.6035 23.6334 62.9017 23.5443 63.1533 23.3736L68.1267 20.0403C68.1512 20.0234 68.1802 20.0143 68.21 20.0143C68.2398 20.0143 68.2689 20.0234 68.2933 20.0403L73.2667 23.3736C73.5149 23.5502 73.812 23.645 74.1167 23.645C74.4213 23.645 74.7184 23.5502 74.9667 23.3736C75.213 23.1968 75.3984 22.948 75.4975 22.6615C75.5966 22.375 75.6045 22.0648 75.52 21.7736L73.8867 16.0136C73.878 15.9847 73.8785 15.9538 73.888 15.9252C73.8976 15.8965 73.9157 15.8716 73.94 15.8536L78.6667 12.1203Z" fill="#FFA800" fill-opacity="0.8"/>
<path d="M106.667 12.1203C106.914 11.9357 107.098 11.6782 107.192 11.3839C107.286 11.0896 107.286 10.7732 107.191 10.4792C107.096 10.1851 106.912 9.92809 106.663 9.74418C106.415 9.56026 106.116 9.45866 105.807 9.45361L99.8067 9.22694C99.7772 9.22491 99.7489 9.21438 99.7252 9.19664C99.7016 9.1789 99.6836 9.15469 99.6733 9.12694L97.6 3.52694C97.4958 3.24204 97.3066 2.99602 97.058 2.82221C96.8094 2.64839 96.5134 2.55518 96.21 2.55518C95.9067 2.55518 95.6106 2.64839 95.362 2.82221C95.1134 2.99602 94.9242 3.24204 94.82 3.52694L92.7533 9.14694C92.7431 9.17469 92.7251 9.1989 92.7015 9.21664C92.6778 9.23438 92.6495 9.24491 92.62 9.24694L86.62 9.47361C86.3111 9.47866 86.0115 9.58026 85.7632 9.76418C85.5149 9.94809 85.3305 10.2051 85.2356 10.4992C85.1408 10.7932 85.1404 11.1096 85.2344 11.4039C85.3284 11.6982 85.5122 11.9557 85.76 12.1403L90.4667 15.8403C90.4902 15.8588 90.5078 15.8839 90.5173 15.9123C90.5268 15.9407 90.5277 15.9713 90.52 16.0003L88.9 21.7403C88.8161 22.0326 88.8242 22.3436 88.9233 22.6311C89.0224 22.9187 89.2077 23.1687 89.4539 23.3471C89.7001 23.5256 89.9954 23.6239 90.2995 23.6286C90.6035 23.6334 90.9017 23.5443 91.1533 23.3736L96.1267 20.0403C96.1512 20.0234 96.1802 20.0143 96.21 20.0143C96.2398 20.0143 96.2689 20.0234 96.2933 20.0403L101.267 23.3736C101.515 23.5502 101.812 23.645 102.117 23.645C102.421 23.645 102.718 23.5502 102.967 23.3736C103.213 23.1968 103.398 22.948 103.498 22.6615C103.597 22.375 103.604 22.0648 103.52 21.7736L101.887 16.0136C101.878 15.9847 101.879 15.9538 101.888 15.9252C101.898 15.8965 101.916 15.8716 101.94 15.8536L106.667 12.1203Z" fill="#FFA800" fill-opacity="0.8"/>
<path d="M134.667 12.1203C134.914 11.9357 135.098 11.6782 135.192 11.3839C135.286 11.0896 135.286 10.7732 135.191 10.4792C135.096 10.1851 134.912 9.92809 134.663 9.74418C134.415 9.56026 134.116 9.45866 133.807 9.45361L127.807 9.22694C127.777 9.22491 127.749 9.21438 127.725 9.19664C127.702 9.1789 127.684 9.15469 127.673 9.12694L125.6 3.52694C125.496 3.24204 125.307 2.99602 125.058 2.82221C124.809 2.64839 124.513 2.55518 124.21 2.55518C123.907 2.55518 123.611 2.64839 123.362 2.82221C123.113 2.99602 122.924 3.24204 122.82 3.52694L120.753 9.14694C120.743 9.17469 120.725 9.1989 120.701 9.21664C120.678 9.23438 120.65 9.24491 120.62 9.24694L114.62 9.47361C114.311 9.47866 114.011 9.58026 113.763 9.76418C113.515 9.94809 113.33 10.2051 113.236 10.4992C113.141 10.7932 113.14 11.1096 113.234 11.4039C113.328 11.6982 113.512 11.9557 113.76 12.1403L118.467 15.8403C118.49 15.8588 118.508 15.8839 118.517 15.9123C118.527 15.9407 118.528 15.9713 118.52 16.0003L116.9 21.7403C116.816 22.0326 116.824 22.3436 116.923 22.6311C117.022 22.9187 117.208 23.1687 117.454 23.3471C117.7 23.5256 117.995 23.6239 118.299 23.6286C118.604 23.6334 118.902 23.5443 119.153 23.3736L124.127 20.0403C124.151 20.0234 124.18 20.0143 124.21 20.0143C124.24 20.0143 124.269 20.0234 124.293 20.0403L129.267 23.3736C129.515 23.5502 129.812 23.645 130.117 23.645C130.421 23.645 130.718 23.5502 130.967 23.3736C131.213 23.1968 131.398 22.948 131.498 22.6615C131.597 22.375 131.604 22.0648 131.52 21.7736L129.887 16.0136C129.878 15.9847 129.879 15.9538 129.888 15.9252C129.898 15.8965 129.916 15.8716 129.94 15.8536L134.667 12.1203Z" fill="#FFA800" fill-opacity="0.8"/>
</svg>
