<svg width="36" height="32" viewBox="0 0 36 32" fill="none" xmlns="http://www.w3.org/2000/svg">
    <g id="material-symbols:bed" clip-path="url(#clip0_73_58)">
        <path id="Vector"
              d="M3.16663 29.0665V19.4665C3.16663 18.7465 3.31329 18.0932 3.60663 17.5065C3.89996 16.9198 4.28663 16.3998 4.76663 15.9465V11.4665C4.76663 10.1332 5.23329 8.99984 6.16663 8.0665C7.09996 7.13317 8.23329 6.6665 9.56663 6.6665H15.9666C16.58 6.6665 17.1533 6.7801 17.6866 7.0073C18.22 7.2345 18.7133 7.54757 19.1666 7.9465C19.62 7.5465 20.1133 7.23344 20.6466 7.0073C21.18 6.78117 21.7533 6.66757 22.3666 6.6665H28.7666C30.1 6.6665 31.2333 7.13317 32.1666 8.0665C33.1 8.99984 33.5666 10.1332 33.5666 11.4665V15.9465C34.0466 16.3998 34.4333 16.9198 34.7266 17.5065C35.02 18.0932 35.1666 18.7465 35.1666 19.4665V29.0665H31.9666V25.8665H6.36663V29.0665H3.16663ZM20.7666 14.6665H30.3666V11.4665C30.3666 11.0132 30.213 10.6329 29.9058 10.3257C29.5986 10.0185 29.2189 9.86544 28.7666 9.8665H22.3666C21.9133 9.8665 21.533 10.0201 21.2258 10.3273C20.9186 10.6345 20.7656 11.0142 20.7666 11.4665V14.6665ZM7.96663 14.6665H17.5666V11.4665C17.5666 11.0132 17.413 10.6329 17.1058 10.3257C16.7986 10.0185 16.4189 9.86544 15.9666 9.8665H9.56663C9.11329 9.8665 8.73303 10.0201 8.42583 10.3273C8.11863 10.6345 7.96556 11.0142 7.96663 11.4665V14.6665Z"
              fill="white"/>
    </g>
    <defs>
        <clipPath id="clip0_73_58">
            <rect width="35" height="32" fill="white" transform="translate(0.5)"/>
        </clipPath>
    </defs>
</svg>
