<svg width="1417" height="4169" viewBox="0 0 1417 4169" fill="none" xmlns="http://www.w3.org/2000/svg">
    <defs>
        <linearGradient id="colorGradient" x1="0%" y1="0%" x2="100%" y2="0%">
            <stop offset="0%" stop-color="#fff">
                <animate attributeName="stop-color" values="#097FD9; #062e4b; #097FD9;" dur="4s" repeatCount="indefinite" />
            </stop>
        </linearGradient>
    </defs>
    <path d="M1117 0.10459C1172 -5.46889 948.207 212.909 825 368.644C670.992 563.314 1238 624.196 1150 472C1062 319.804 1364.39 639.916 775.5 753.5C388.5 828.144 738.5 765.5 269.5 840.144C103.55 866.556 -167.491 880.178 144.856 1126.57C535.29 1434.57 1335.02 1616.17 1292 1803.8C1248.98 1991.42 349.287 2769.8 882.5 2769.8C2055.64 2769.8 249.145 3228.77 710 3388.88C850.545 3437.7 1444.95 3355.04 1414 3664.88C1356.34 4242.16 -62.8009 3968.08 93.9991 4284.88C289.999 4680.89 1414 4828.89 1444 4964.89"
          stroke="url(#colorGradient)" stroke-width="1.5" stroke-linecap="square"/>
    <path d="M490.948 291.217C491.404 289.4 491.632 288.492 491.995 288.28C492.307 288.097 492.693 288.097 493.005 288.28C493.368 288.492 493.596 289.4 494.052 291.217L496.21 299.812C496.351 300.371 496.421 300.651 496.584 300.834C496.727 300.995 496.918 301.105 497.129 301.149C497.369 301.198 497.646 301.119 498.201 300.961L506.724 298.533C508.525 298.02 509.425 297.763 509.79 297.971C510.105 298.15 510.298 298.484 510.296 298.846C510.293 299.266 509.621 299.918 508.276 301.221L501.911 307.388C501.497 307.789 501.29 307.989 501.213 308.222C501.145 308.426 501.145 308.647 501.213 308.852C501.29 309.085 501.497 309.285 501.911 309.686L508.276 315.853C509.621 317.156 510.293 317.808 510.296 318.228C510.298 318.59 510.105 318.924 509.79 319.103C509.425 319.311 508.525 319.054 506.724 318.541L498.201 316.113C497.646 315.955 497.369 315.876 497.129 315.925C496.918 315.969 496.727 316.079 496.584 316.24C496.421 316.423 496.351 316.703 496.21 317.262L494.052 325.857C493.596 327.674 493.368 328.582 493.005 328.794C492.693 328.977 492.307 328.977 491.995 328.794C491.632 328.582 491.404 327.674 490.948 325.857L488.79 317.262C488.649 316.703 488.579 316.423 488.416 316.24C488.273 316.079 488.082 315.969 487.871 315.925C487.631 315.876 487.354 315.955 486.799 316.113L478.276 318.541C476.475 319.054 475.575 319.311 475.21 319.103C474.895 318.924 474.702 318.59 474.704 318.228C474.707 317.808 475.379 317.156 476.724 315.853L483.089 309.686C483.503 309.285 483.71 309.085 483.787 308.852C483.855 308.647 483.855 308.426 483.787 308.222C483.71 307.989 483.503 307.789 483.089 307.388L476.724 301.221C475.379 299.918 474.707 299.266 474.704 298.846C474.702 298.484 474.895 298.15 475.21 297.971C475.575 297.763 476.475 298.02 478.276 298.533L486.799 300.961C487.354 301.119 487.631 301.198 487.871 301.149C488.082 301.105 488.273 300.995 488.416 300.834C488.579 300.651 488.649 300.371 488.79 299.812L490.948 291.217Z"
          fill="#097FD9"/>
    <path d="M962.7 105.57C962.824 103.701 962.885 102.767 963.203 102.493C963.478 102.257 963.858 102.188 964.198 102.312C964.592 102.456 964.979 103.308 965.754 105.013L969.418 113.083C969.656 113.608 969.775 113.87 969.968 114.021C970.138 114.154 970.346 114.228 970.561 114.233C970.806 114.239 971.065 114.111 971.582 113.857L979.532 109.94C981.212 109.112 982.052 108.698 982.448 108.837C982.789 108.957 983.039 109.252 983.102 109.608C983.175 110.021 982.63 110.783 981.54 112.306L976.384 119.514C976.049 119.983 975.881 120.217 975.847 120.46C975.817 120.673 975.856 120.891 975.96 121.08C976.077 121.295 976.317 121.455 976.796 121.775L984.163 126.702C985.72 127.743 986.498 128.263 986.576 128.676C986.643 129.031 986.513 129.395 986.235 129.628C985.914 129.897 984.982 129.806 983.118 129.624L974.297 128.762C973.724 128.706 973.437 128.678 973.21 128.77C973.01 128.851 972.841 128.994 972.729 129.178C972.602 129.387 972.583 129.675 972.545 130.25L971.962 139.093C971.839 140.962 971.777 141.896 971.459 142.17C971.185 142.406 970.804 142.475 970.465 142.351C970.07 142.207 969.683 141.354 968.909 139.649L965.245 131.58C965.006 131.055 964.887 130.793 964.694 130.642C964.525 130.509 964.317 130.434 964.101 130.429C963.856 130.424 963.598 130.551 963.081 130.806L955.131 134.723C953.451 135.55 952.611 135.964 952.215 135.825C951.873 135.706 951.623 135.411 951.56 135.055C951.488 134.641 952.033 133.88 953.122 132.356L958.279 125.148C958.614 124.68 958.782 124.445 958.816 124.203C958.846 123.989 958.806 123.772 958.703 123.583C958.585 123.368 958.346 123.208 957.867 122.887L950.5 117.961C948.943 116.92 948.165 116.399 948.087 115.987C948.02 115.631 948.15 115.267 948.427 115.035C948.749 114.765 949.681 114.856 951.545 115.038L960.365 115.9C960.939 115.956 961.226 115.984 961.453 115.892C961.653 115.812 961.821 115.669 961.933 115.485C962.061 115.275 962.079 114.988 962.117 114.413L962.7 105.57Z"
          fill="#097FD9"/>
    <path d="M1152.85 697.806C1154.28 696.604 1155 696.002 1155.42 696.043C1155.78 696.079 1156.09 696.306 1156.24 696.637C1156.41 697.021 1156.06 697.89 1155.36 699.629L1153 705.52C1152.78 706.054 1152.67 706.322 1152.7 706.566C1152.72 706.78 1152.81 706.982 1152.96 707.141C1153.12 707.322 1153.39 707.421 1153.93 707.618L1159.9 709.795C1161.65 710.438 1162.53 710.759 1162.71 711.141C1162.86 711.471 1162.82 711.855 1162.6 712.147C1162.35 712.485 1161.43 712.617 1159.57 712.882L1153.29 713.781C1152.72 713.862 1152.43 713.903 1152.23 714.046C1152.06 714.172 1151.93 714.35 1151.86 714.556C1151.79 714.789 1151.84 715.073 1151.94 715.641L1153.04 721.893C1153.36 723.738 1153.52 724.66 1153.28 725.001C1153.07 725.296 1152.71 725.453 1152.35 725.413C1151.94 725.367 1151.36 724.63 1150.2 723.157L1146.28 718.165C1145.93 717.711 1145.75 717.485 1145.52 717.384C1145.33 717.295 1145.11 717.272 1144.9 717.318C1144.66 717.371 1144.44 717.556 1144 717.926L1139.13 722.001C1137.69 723.204 1136.98 723.805 1136.56 723.764C1136.2 723.729 1135.88 723.502 1135.74 723.17C1135.57 722.786 1135.92 721.917 1136.62 720.179L1138.98 714.288C1139.2 713.753 1139.3 713.486 1139.28 713.242C1139.26 713.027 1139.17 712.825 1139.02 712.666C1138.86 712.485 1138.59 712.387 1138.04 712.189L1132.08 710.012C1130.32 709.37 1129.44 709.049 1129.27 708.666C1129.12 708.337 1129.16 707.952 1129.38 707.661C1129.62 707.323 1130.55 707.19 1132.4 706.925L1138.69 706.027C1139.26 705.945 1139.54 705.904 1139.74 705.762C1139.92 705.636 1140.05 705.457 1140.11 705.252C1140.19 705.018 1140.14 704.734 1140.04 704.167L1138.94 697.914C1138.62 696.07 1138.46 695.147 1138.7 694.806C1138.91 694.512 1139.26 694.354 1139.62 694.394C1140.04 694.44 1140.62 695.177 1141.78 696.65L1145.7 701.643C1146.05 702.096 1146.23 702.323 1146.45 702.423C1146.65 702.512 1146.87 702.535 1147.08 702.489C1147.32 702.436 1147.54 702.251 1147.98 701.881L1152.85 697.806Z"
          fill="#097FD9"/>
    <path d="M844.637 1310.18C843.854 1308.47 843.462 1307.62 843.612 1307.23C843.74 1306.89 844.042 1306.65 844.4 1306.6C844.815 1306.54 845.562 1307.1 847.055 1308.23L849.826 1310.33C850.285 1310.67 850.515 1310.85 850.757 1310.89C850.969 1310.92 851.188 1310.89 851.38 1310.79C851.598 1310.68 851.764 1310.44 852.097 1309.97L854.104 1307.14C855.186 1305.61 855.727 1304.85 856.141 1304.78C856.498 1304.72 856.859 1304.86 857.084 1305.14C857.345 1305.47 857.229 1306.4 856.997 1308.26L856.568 1311.71C856.497 1312.28 856.461 1312.56 856.547 1312.79C856.622 1313 856.761 1313.17 856.942 1313.29C857.148 1313.42 857.435 1313.44 858.008 1313.5L861.467 1313.82C863.332 1313.99 864.264 1314.08 864.529 1314.4C864.758 1314.68 864.817 1315.07 864.684 1315.4C864.53 1315.79 863.667 1316.16 861.942 1316.89L858.743 1318.24C858.212 1318.46 857.946 1318.57 857.79 1318.76C857.653 1318.93 857.573 1319.13 857.563 1319.35C857.55 1319.59 857.671 1319.86 857.912 1320.38L859.364 1323.54C860.147 1325.24 860.538 1326.09 860.389 1326.48C860.26 1326.82 859.959 1327.06 859.601 1327.11C859.186 1327.17 858.439 1326.61 856.945 1325.48L854.175 1323.39C853.715 1323.04 853.485 1322.86 853.244 1322.82C853.031 1322.79 852.813 1322.82 852.621 1322.92C852.403 1323.03 852.236 1323.27 851.904 1323.74L849.897 1326.57C848.815 1328.1 848.274 1328.87 847.86 1328.93C847.502 1328.99 847.142 1328.85 846.917 1328.57C846.656 1328.24 846.772 1327.31 847.003 1325.45L847.432 1322C847.504 1321.43 847.539 1321.15 847.454 1320.92C847.378 1320.71 847.24 1320.54 847.059 1320.43C846.853 1320.29 846.566 1320.27 845.992 1320.21L842.533 1319.89C840.669 1319.72 839.736 1319.63 839.471 1319.31C839.243 1319.03 839.183 1318.65 839.316 1318.31C839.471 1317.92 840.333 1317.55 842.058 1316.83L845.258 1315.47C845.789 1315.25 846.054 1315.14 846.21 1314.95C846.347 1314.78 846.427 1314.58 846.438 1314.36C846.45 1314.12 846.33 1313.85 846.089 1313.33L844.637 1310.18Z"
          fill="#097FD9"/>
    <path d="M292.056 2897.19C293.47 2895.97 294.176 2895.35 294.595 2895.38C294.955 2895.41 295.272 2895.63 295.424 2895.96C295.599 2896.34 295.267 2897.22 294.602 2898.97L294.389 2899.53C294.184 2900.07 294.082 2900.34 294.111 2900.58C294.136 2900.8 294.23 2901 294.378 2901.15C294.546 2901.33 294.819 2901.42 295.364 2901.61L295.93 2901.81C297.701 2902.42 298.587 2902.72 298.767 2903.1C298.923 2903.43 298.89 2903.81 298.681 2904.11C298.438 2904.45 297.514 2904.6 295.665 2904.9L295.074 2904.99C294.505 2905.09 294.22 2905.13 294.024 2905.28C293.851 2905.41 293.725 2905.59 293.664 2905.8C293.594 2906.03 293.649 2906.31 293.759 2906.88L293.873 2907.47C294.231 2909.31 294.409 2910.23 294.171 2910.57C293.966 2910.87 293.616 2911.03 293.256 2911C292.838 2910.96 292.246 2910.24 291.063 2908.78L290.684 2908.32C290.32 2907.87 290.138 2907.65 289.912 2907.55C289.714 2907.47 289.494 2907.45 289.285 2907.5C289.046 2907.56 288.829 2907.75 288.394 2908.12L287.942 2908.52C286.528 2909.75 285.822 2910.36 285.403 2910.33C285.043 2910.3 284.726 2910.08 284.574 2909.75C284.399 2909.37 284.731 2908.49 285.396 2906.74L285.609 2906.18C285.814 2905.64 285.916 2905.37 285.887 2905.13C285.862 2904.92 285.768 2904.72 285.62 2904.56C285.451 2904.38 285.179 2904.29 284.634 2904.1L284.067 2903.9C282.297 2903.29 281.411 2902.99 281.231 2902.61C281.075 2902.28 281.108 2901.9 281.317 2901.6C281.559 2901.26 282.484 2901.11 284.332 2900.81L284.924 2900.72C285.493 2900.62 285.777 2900.58 285.974 2900.43C286.147 2900.3 286.273 2900.12 286.334 2899.91C286.404 2899.68 286.349 2899.4 286.239 2898.83L286.125 2898.24C285.767 2896.4 285.588 2895.49 285.826 2895.14C286.032 2894.84 286.382 2894.68 286.742 2894.71C287.16 2894.75 287.752 2895.47 288.935 2896.93L289.314 2897.39C289.678 2897.84 289.86 2898.06 290.085 2898.16C290.283 2898.24 290.504 2898.26 290.713 2898.21C290.952 2898.15 291.169 2897.97 291.604 2897.59L292.056 2897.19Z"
          fill="#097FD9"/>
    <path d="M428.666 1090.87C429.751 1089.34 430.293 1088.58 430.707 1088.51C431.065 1088.46 431.425 1088.6 431.649 1088.88C431.91 1089.21 431.792 1090.14 431.558 1092L431.483 1092.59C431.411 1093.16 431.375 1093.45 431.46 1093.68C431.535 1093.88 431.673 1094.05 431.854 1094.17C432.06 1094.3 432.347 1094.33 432.92 1094.38L433.517 1094.44C435.382 1094.62 436.314 1094.7 436.578 1095.03C436.806 1095.31 436.865 1095.69 436.731 1096.03C436.577 1096.42 435.713 1096.78 433.987 1097.51L433.435 1097.74C432.903 1097.96 432.638 1098.07 432.481 1098.26C432.344 1098.43 432.264 1098.64 432.253 1098.85C432.24 1099.1 432.36 1099.36 432.6 1099.88L432.85 1100.43C433.63 1102.13 434.02 1102.98 433.87 1103.37C433.741 1103.71 433.439 1103.95 433.081 1104C432.666 1104.07 431.92 1103.5 430.428 1102.37L429.95 1102C429.491 1101.66 429.262 1101.48 429.02 1101.44C428.808 1101.41 428.589 1101.44 428.398 1101.54C428.179 1101.65 428.013 1101.88 427.679 1102.35L427.332 1102.84C426.247 1104.37 425.705 1105.13 425.291 1105.2C424.933 1105.26 424.573 1105.11 424.349 1104.83C424.088 1104.5 424.205 1103.57 424.44 1101.71L424.515 1101.12C424.587 1100.55 424.623 1100.26 424.538 1100.03C424.463 1099.83 424.325 1099.66 424.144 1099.54C423.938 1099.41 423.651 1099.38 423.078 1099.33L422.481 1099.27C420.616 1099.09 419.684 1099.01 419.42 1098.68C419.191 1098.4 419.133 1098.02 419.266 1097.68C419.421 1097.29 420.284 1096.93 422.011 1096.2L422.563 1095.97C423.095 1095.75 423.36 1095.64 423.516 1095.45C423.654 1095.28 423.734 1095.07 423.745 1094.86C423.758 1094.61 423.638 1094.35 423.398 1093.83L423.148 1093.28C422.368 1091.58 421.978 1090.73 422.128 1090.34C422.257 1090 422.559 1089.76 422.917 1089.71C423.332 1089.64 424.078 1090.21 425.57 1091.34L426.047 1091.71C426.506 1092.05 426.736 1092.23 426.978 1092.27C427.19 1092.31 427.408 1092.27 427.6 1092.17C427.818 1092.06 427.985 1091.83 428.319 1091.36L428.666 1090.87Z"
          fill="#097FD9"/>
    <path d="M530.331 1790.55C530.055 1788.7 529.916 1787.77 530.169 1787.44C530.387 1787.15 530.744 1787 531.103 1787.05C531.519 1787.1 532.078 1787.86 533.197 1789.36L533.555 1789.84C533.899 1790.3 534.071 1790.53 534.292 1790.64C534.486 1790.73 534.705 1790.76 534.916 1790.72C535.157 1790.67 535.383 1790.49 535.834 1790.13L536.303 1789.76C537.769 1788.6 538.502 1788.01 538.918 1788.06C539.277 1788.11 539.584 1788.34 539.721 1788.68C539.88 1789.07 539.509 1789.93 538.768 1791.65L538.531 1792.2C538.302 1792.73 538.188 1792.99 538.206 1793.24C538.222 1793.45 538.307 1793.65 538.448 1793.82C538.609 1794 538.877 1794.11 539.413 1794.32L539.971 1794.54C541.713 1795.23 542.584 1795.57 542.748 1795.96C542.889 1796.29 542.839 1796.67 542.617 1796.96C542.36 1797.29 541.43 1797.4 539.57 1797.62L538.975 1797.69C538.402 1797.75 538.116 1797.79 537.914 1797.93C537.735 1798.05 537.601 1798.22 537.531 1798.43C537.451 1798.66 537.493 1798.94 537.578 1799.51L537.667 1800.11C537.943 1801.96 538.081 1802.88 537.828 1803.22C537.61 1803.51 537.253 1803.66 536.895 1803.61C536.479 1803.55 535.92 1802.8 534.801 1801.3L534.443 1800.82C534.099 1800.35 533.927 1800.12 533.706 1800.02C533.512 1799.92 533.293 1799.89 533.081 1799.94C532.841 1799.98 532.615 1800.16 532.164 1800.52L531.695 1800.89C530.229 1802.06 529.496 1802.64 529.079 1802.59C528.72 1802.54 528.413 1802.31 528.276 1801.97C528.118 1801.59 528.488 1800.73 529.23 1799.01L529.467 1798.46C529.695 1797.93 529.809 1797.66 529.791 1797.42C529.775 1797.2 529.691 1797 529.549 1796.84C529.389 1796.65 529.121 1796.55 528.585 1796.33L528.027 1796.11C526.285 1795.43 525.414 1795.08 525.25 1794.7C525.109 1794.36 525.159 1793.98 525.38 1793.7C525.638 1793.36 526.568 1793.25 528.428 1793.04L529.023 1792.97C529.595 1792.9 529.881 1792.87 530.084 1792.73C530.262 1792.61 530.397 1792.43 530.467 1792.23C530.547 1792 530.504 1791.71 530.419 1791.14L530.331 1790.55Z"
          fill="#097FD9"/>
    <path d="M141.976 2030.83C142.927 2028.96 143.403 2028.02 143.815 2027.9C144.17 2027.8 144.554 2027.9 144.813 2028.16C145.114 2028.47 145.076 2029.52 145 2031.61L144.681 2040.45C144.659 2041.06 144.648 2041.36 144.762 2041.59C144.862 2041.79 145.027 2041.95 145.23 2042.05C145.461 2042.16 145.766 2042.14 146.375 2042.1L154.569 2041.61C156.345 2041.51 157.233 2041.45 157.543 2041.73C157.81 2041.97 157.93 2042.33 157.857 2042.68C157.773 2043.09 157.029 2043.57 155.54 2044.55L147.658 2049.71C147.229 2049.99 147.014 2050.13 146.897 2050.32C146.794 2050.49 146.743 2050.69 146.751 2050.89C146.761 2051.11 146.88 2051.34 147.119 2051.79L151.501 2060.13C152.328 2061.71 152.742 2062.5 152.618 2062.89C152.511 2063.23 152.231 2063.49 151.881 2063.57C151.477 2063.66 150.726 2063.18 149.225 2062.23L142.3 2057.82C141.785 2057.49 141.528 2057.33 141.273 2057.31C141.049 2057.3 140.827 2057.36 140.642 2057.49C140.431 2057.63 140.292 2057.9 140.015 2058.45L136.003 2066.32C135.051 2068.19 134.575 2069.13 134.163 2069.25C133.808 2069.35 133.425 2069.25 133.165 2068.99C132.864 2068.68 132.902 2067.64 132.978 2065.54L133.297 2056.7C133.319 2056.09 133.33 2055.79 133.216 2055.56C133.116 2055.36 132.951 2055.2 132.748 2055.1C132.517 2054.99 132.213 2055.01 131.603 2055.05L123.409 2055.54C121.633 2055.64 120.745 2055.7 120.436 2055.42C120.168 2055.18 120.048 2054.82 120.121 2054.47C120.205 2054.06 120.949 2053.58 122.438 2052.6L130.32 2047.44C130.749 2047.16 130.964 2047.02 131.081 2046.83C131.184 2046.66 131.235 2046.46 131.227 2046.26C131.218 2046.04 131.098 2045.81 130.86 2045.36L126.478 2037.02C125.65 2035.44 125.236 2034.65 125.36 2034.26C125.467 2033.92 125.748 2033.66 126.097 2033.58C126.502 2033.49 127.252 2033.97 128.753 2034.92L135.678 2039.33C136.193 2039.66 136.45 2039.82 136.705 2039.84C136.929 2039.85 137.151 2039.79 137.336 2039.66C137.547 2039.52 137.686 2039.25 137.963 2038.7L141.976 2030.83Z"
          fill="#097FD9"/>
    <path d="M1210.47 2190.56C1210.43 2188.69 1210.41 2187.75 1210.7 2187.45C1210.95 2187.19 1211.32 2187.09 1211.67 2187.18C1212.08 2187.29 1212.54 2188.1 1213.47 2189.73L1218.37 2198.38C1218.65 2198.88 1218.8 2199.13 1219 2199.26C1219.18 2199.38 1219.4 2199.44 1219.61 2199.42C1219.86 2199.4 1220.1 2199.25 1220.59 2198.95L1229.08 2193.78C1230.68 2192.81 1231.48 2192.32 1231.89 2192.42C1232.24 2192.51 1232.51 2192.78 1232.61 2193.13C1232.72 2193.54 1232.24 2194.34 1231.29 2195.96L1226.26 2204.53C1225.97 2205.02 1225.82 2205.27 1225.81 2205.52C1225.8 2205.73 1225.86 2205.95 1225.98 2206.12C1226.11 2206.33 1226.37 2206.47 1226.87 2206.74L1235.6 2211.51C1237.24 2212.4 1238.06 2212.85 1238.18 2213.26C1238.27 2213.6 1238.18 2213.98 1237.92 2214.23C1237.63 2214.53 1236.69 2214.52 1234.82 2214.51L1224.88 2214.43C1224.3 2214.43 1224.01 2214.43 1223.79 2214.54C1223.6 2214.64 1223.45 2214.79 1223.35 2214.99C1223.24 2215.21 1223.25 2215.5 1223.27 2216.07L1223.5 2226.01C1223.55 2227.88 1223.57 2228.82 1223.28 2229.12C1223.02 2229.38 1222.65 2229.48 1222.3 2229.39C1221.9 2229.28 1221.43 2228.47 1220.51 2226.84L1215.61 2218.19C1215.32 2217.69 1215.18 2217.44 1214.97 2217.31C1214.79 2217.19 1214.58 2217.13 1214.37 2217.15C1214.12 2217.16 1213.87 2217.31 1213.38 2217.61L1204.9 2222.79C1203.3 2223.76 1202.5 2224.25 1202.09 2224.15C1201.74 2224.06 1201.46 2223.79 1201.37 2223.44C1201.26 2223.03 1201.73 2222.23 1202.68 2220.61L1207.72 2212.04C1208.01 2211.54 1208.16 2211.3 1208.17 2211.05C1208.18 2210.84 1208.12 2210.62 1208 2210.44C1207.86 2210.24 1207.61 2210.1 1207.11 2209.83L1198.38 2205.06C1196.74 2204.17 1195.92 2203.72 1195.8 2203.31C1195.7 2202.96 1195.8 2202.59 1196.05 2202.33C1196.35 2202.04 1197.29 2202.04 1199.16 2202.06L1209.1 2202.13C1209.68 2202.14 1209.96 2202.14 1210.18 2202.03C1210.37 2201.93 1210.53 2201.77 1210.62 2201.58C1210.73 2201.36 1210.73 2201.07 1210.71 2200.5L1210.47 2190.56Z"
          fill="#097FD9"/>
    <path d="M699.888 3145.28C699.999 3144.84 700.054 3144.62 700.095 3144.54C700.456 3143.77 701.545 3143.77 701.905 3144.54C701.946 3144.62 702.002 3144.84 702.112 3145.28V3145.28C702.146 3145.42 702.163 3145.49 702.184 3145.54C702.353 3145.98 702.81 3146.25 703.278 3146.17C703.336 3146.16 703.404 3146.14 703.538 3146.11V3146.11C703.974 3145.98 704.192 3145.92 704.289 3145.91C705.132 3145.84 705.677 3146.78 705.194 3147.48C705.138 3147.56 704.976 3147.72 704.65 3148.03V3148.03C704.549 3148.13 704.499 3148.18 704.462 3148.22C704.162 3148.59 704.162 3149.12 704.462 3149.49C704.499 3149.53 704.549 3149.58 704.65 3149.68V3149.68C704.976 3149.99 705.138 3150.15 705.194 3150.23C705.677 3150.93 705.132 3151.87 704.289 3151.8C704.192 3151.79 703.974 3151.73 703.538 3151.6V3151.6C703.404 3151.57 703.336 3151.55 703.278 3151.54C702.81 3151.46 702.353 3151.73 702.184 3152.17C702.163 3152.22 702.146 3152.29 702.112 3152.43V3152.43C702.002 3152.87 701.946 3153.09 701.905 3153.18C701.545 3153.94 700.456 3153.94 700.095 3153.18C700.054 3153.09 699.999 3152.87 699.888 3152.43V3152.43C699.854 3152.29 699.837 3152.22 699.816 3152.17C699.648 3151.73 699.191 3151.46 698.722 3151.54C698.664 3151.55 698.597 3151.57 698.462 3151.6V3151.6C698.026 3151.73 697.808 3151.79 697.711 3151.8C696.868 3151.87 696.324 3150.93 696.807 3150.23C696.862 3150.15 697.025 3149.99 697.351 3149.68V3149.68C697.451 3149.58 697.501 3149.53 697.538 3149.49C697.838 3149.12 697.838 3148.59 697.538 3148.22C697.501 3148.18 697.451 3148.13 697.351 3148.03V3148.03C697.025 3147.72 696.862 3147.56 696.807 3147.48C696.324 3146.78 696.868 3145.84 697.711 3145.91C697.808 3145.92 698.026 3145.98 698.462 3146.11V3146.11C698.597 3146.14 698.664 3146.16 698.722 3146.17C699.191 3146.25 699.648 3145.98 699.816 3145.54C699.837 3145.49 699.854 3145.42 699.888 3145.28V3145.28Z"
          fill="#097FD9"/>
    <path d="M807.314 2529.09C807.547 2528.7 807.663 2528.5 807.728 2528.43C808.294 2527.8 809.337 2528.12 809.46 2528.95C809.474 2529.05 809.464 2529.28 809.442 2529.73V2529.73C809.436 2529.87 809.432 2529.94 809.436 2530C809.47 2530.47 809.831 2530.85 810.301 2530.92C810.36 2530.93 810.429 2530.93 810.569 2530.93V2530.93C811.023 2530.94 811.249 2530.94 811.344 2530.96C812.172 2531.14 812.42 2532.2 811.757 2532.72C811.681 2532.78 811.48 2532.89 811.077 2533.09V2533.09C810.952 2533.16 810.89 2533.19 810.842 2533.22C810.448 2533.49 810.295 2533.99 810.476 2534.43C810.498 2534.49 810.532 2534.55 810.6 2534.67V2534.67C810.821 2535.07 810.931 2535.26 810.961 2535.36C811.222 2536.16 810.429 2536.91 809.642 2536.6C809.551 2536.56 809.361 2536.44 808.979 2536.19V2536.19C808.862 2536.12 808.803 2536.08 808.75 2536.05C808.323 2535.84 807.809 2535.97 807.52 2536.34C807.484 2536.39 807.448 2536.45 807.376 2536.57V2536.57C807.143 2536.96 807.027 2537.15 806.962 2537.22C806.395 2537.85 805.353 2537.54 805.229 2536.7C805.215 2536.6 805.226 2536.38 805.247 2535.92V2535.92C805.254 2535.78 805.257 2535.72 805.253 2535.66C805.22 2535.18 804.859 2534.8 804.388 2534.74C804.33 2534.73 804.26 2534.73 804.12 2534.72V2534.72C803.667 2534.72 803.44 2534.71 803.345 2534.69C802.518 2534.52 802.269 2533.46 802.932 2532.93C803.009 2532.87 803.21 2532.77 803.613 2532.56V2532.56C803.737 2532.49 803.799 2532.46 803.848 2532.43C804.242 2532.16 804.394 2531.66 804.214 2531.22C804.191 2531.17 804.157 2531.11 804.089 2530.98V2530.98C803.869 2530.59 803.759 2530.39 803.728 2530.3C803.467 2529.49 804.261 2528.75 805.048 2529.06C805.138 2529.09 805.329 2529.22 805.71 2529.46V2529.46C805.828 2529.54 805.887 2529.57 805.94 2529.6C806.366 2529.81 806.88 2529.69 807.17 2529.31C807.206 2529.27 807.242 2529.21 807.314 2529.09V2529.09Z"
          fill="#097FD9"/>
    <path d="M984.448 1892.04C984.905 1890.22 985.133 1889.31 985.495 1889.1C985.807 1888.92 986.194 1888.92 986.506 1889.1C986.868 1889.31 987.096 1890.22 987.552 1892.04L988.398 1895.4C988.538 1895.96 988.609 1896.24 988.771 1896.43C988.915 1896.59 989.106 1896.7 989.317 1896.74C989.557 1896.79 989.834 1896.71 990.388 1896.55L993.729 1895.6C995.53 1895.09 996.431 1894.83 996.795 1895.04C997.11 1895.22 997.303 1895.55 997.301 1895.91C997.298 1896.33 996.626 1896.99 995.281 1898.29L992.786 1900.71C992.372 1901.11 992.165 1901.31 992.088 1901.54C992.02 1901.74 992.02 1901.97 992.088 1902.17C992.165 1902.4 992.372 1902.6 992.786 1903L995.281 1905.42C996.626 1906.72 997.298 1907.38 997.301 1907.8C997.303 1908.16 997.11 1908.49 996.795 1908.67C996.431 1908.88 995.53 1908.62 993.729 1908.11L990.388 1907.16C989.834 1907 989.557 1906.92 989.317 1906.97C989.106 1907.01 988.915 1907.12 988.771 1907.29C988.609 1907.47 988.538 1907.75 988.398 1908.31L987.552 1911.68C987.096 1913.49 986.868 1914.4 986.506 1914.61C986.194 1914.8 985.807 1914.8 985.495 1914.61C985.133 1914.4 984.905 1913.49 984.448 1911.68L983.602 1908.31C983.462 1907.75 983.392 1907.47 983.229 1907.29C983.086 1907.12 982.895 1907.01 982.683 1906.97C982.443 1906.92 982.166 1907 981.612 1907.16L978.272 1908.11C976.47 1908.62 975.57 1908.88 975.205 1908.67C974.891 1908.49 974.697 1908.16 974.7 1907.8C974.702 1907.38 975.375 1906.72 976.72 1905.42L979.214 1903C979.628 1902.6 979.835 1902.4 979.912 1902.17C979.98 1901.97 979.98 1901.74 979.912 1901.54C979.835 1901.31 979.628 1901.11 979.214 1900.71L976.72 1898.29C975.375 1896.99 974.702 1896.33 974.7 1895.91C974.697 1895.55 974.891 1895.22 975.205 1895.04C975.57 1894.83 976.47 1895.09 978.272 1895.6L981.612 1896.55C982.166 1896.71 982.443 1896.79 982.683 1896.74C982.895 1896.7 983.086 1896.59 983.229 1896.43C983.392 1896.24 983.462 1895.96 983.602 1895.4L984.448 1892.04Z"
          fill="#097FD9"/>
    <path d="M1338.32 1718.35C1337.87 1716.53 1337.64 1715.62 1337.86 1715.27C1338.05 1714.96 1338.39 1714.78 1338.75 1714.79C1339.17 1714.81 1339.8 1715.5 1341.06 1716.88L1349.19 1725.84C1349.58 1726.26 1349.78 1726.48 1350.01 1726.56C1350.21 1726.64 1350.43 1726.64 1350.63 1726.58C1350.87 1726.51 1351.08 1726.31 1351.49 1725.91L1360.18 1717.5C1361.53 1716.2 1362.2 1715.55 1362.62 1715.56C1362.98 1715.57 1363.31 1715.77 1363.48 1716.09C1363.68 1716.46 1363.39 1717.35 1362.82 1719.14L1359.13 1730.66C1358.96 1731.21 1358.87 1731.48 1358.91 1731.72C1358.95 1731.94 1359.05 1732.13 1359.21 1732.28C1359.39 1732.45 1359.66 1732.53 1360.22 1732.68L1371.85 1736.01C1373.65 1736.52 1374.55 1736.78 1374.75 1737.15C1374.92 1737.46 1374.91 1737.85 1374.72 1738.16C1374.49 1738.51 1373.58 1738.71 1371.75 1739.11L1359.93 1741.68C1359.36 1741.8 1359.08 1741.86 1358.89 1742.02C1358.73 1742.15 1358.61 1742.34 1358.56 1742.55C1358.51 1742.79 1358.58 1743.07 1358.72 1743.63L1361.65 1755.36C1362.11 1757.18 1362.34 1758.09 1362.12 1758.44C1361.93 1758.75 1361.59 1758.94 1361.23 1758.92C1360.81 1758.9 1360.18 1758.21 1358.92 1756.83L1350.78 1747.87C1350.4 1747.45 1350.2 1747.23 1349.97 1747.15C1349.77 1747.07 1349.55 1747.07 1349.34 1747.13C1349.11 1747.2 1348.9 1747.4 1348.49 1747.8L1339.79 1756.21C1338.45 1757.51 1337.78 1758.16 1337.36 1758.15C1336.99 1758.14 1336.67 1757.94 1336.5 1757.62C1336.3 1757.25 1336.59 1756.36 1337.16 1754.57L1340.85 1743.05C1341.02 1742.5 1341.11 1742.23 1341.07 1741.99C1341.03 1741.78 1340.93 1741.58 1340.77 1741.43C1340.59 1741.26 1340.31 1741.18 1339.76 1741.03L1328.13 1737.7C1326.33 1737.19 1325.43 1736.93 1325.23 1736.56C1325.06 1736.25 1325.07 1735.86 1325.26 1735.55C1325.48 1735.2 1326.4 1735 1328.23 1734.6L1340.05 1732.04C1340.61 1731.91 1340.89 1731.85 1341.08 1731.69C1341.25 1731.56 1341.37 1731.37 1341.42 1731.16C1341.47 1730.92 1341.4 1730.64 1341.26 1730.08L1338.32 1718.35Z"
          fill="#097FD9"/>
    <path d="M198.447 3437.03C198.903 3435.22 199.131 3434.31 199.493 3434.1C199.806 3433.91 200.192 3433.91 200.504 3434.1C200.867 3434.31 201.095 3435.22 201.551 3437.03L204.497 3448.77C204.637 3449.32 204.707 3449.6 204.87 3449.79C205.013 3449.95 205.205 3450.06 205.416 3450.1C205.656 3450.15 205.933 3450.07 206.487 3449.92L218.12 3446.6C219.921 3446.09 220.822 3445.83 221.186 3446.04C221.501 3446.22 221.694 3446.55 221.692 3446.91C221.689 3447.33 221.017 3447.99 219.672 3449.29L210.985 3457.71C210.571 3458.11 210.364 3458.31 210.287 3458.54C210.219 3458.74 210.219 3458.97 210.287 3459.17C210.364 3459.4 210.571 3459.6 210.985 3460L219.672 3468.42C221.017 3469.72 221.689 3470.38 221.692 3470.8C221.694 3471.16 221.501 3471.49 221.186 3471.67C220.822 3471.88 219.921 3471.62 218.12 3471.11L206.487 3467.79C205.933 3467.64 205.656 3467.56 205.416 3467.61C205.205 3467.65 205.013 3467.76 204.87 3467.92C204.707 3468.11 204.637 3468.38 204.497 3468.94L201.551 3480.68C201.095 3482.49 200.867 3483.4 200.504 3483.61C200.192 3483.79 199.806 3483.79 199.493 3483.61C199.131 3483.4 198.903 3482.49 198.447 3480.68L195.501 3468.94C195.361 3468.38 195.291 3468.11 195.128 3467.92C194.985 3467.76 194.793 3467.65 194.582 3467.61C194.342 3467.56 194.065 3467.64 193.511 3467.79L181.878 3471.11C180.077 3471.62 179.176 3471.88 178.811 3471.67C178.497 3471.49 178.304 3471.16 178.306 3470.8C178.309 3470.38 178.981 3469.72 180.326 3468.42L189.013 3460C189.427 3459.6 189.634 3459.4 189.711 3459.17C189.779 3458.97 189.779 3458.74 189.711 3458.54C189.634 3458.31 189.427 3458.11 189.013 3457.71L180.326 3449.29C178.981 3447.99 178.309 3447.33 178.306 3446.91C178.304 3446.55 178.497 3446.22 178.811 3446.04C179.176 3445.83 180.077 3446.09 181.878 3446.6L193.511 3449.92C194.065 3450.07 194.342 3450.15 194.582 3450.1C194.793 3450.06 194.985 3449.95 195.128 3449.79C195.291 3449.6 195.361 3449.32 195.501 3448.77L198.447 3437.03Z"
          fill="#097FD9"/>
    <path d="M230.448 3787.03C230.904 3785.22 231.132 3784.31 231.494 3784.1C231.807 3783.91 232.193 3783.91 232.505 3784.1C232.868 3784.31 233.096 3785.22 233.552 3787.03L236.498 3798.77C236.638 3799.32 236.708 3799.6 236.871 3799.79C237.014 3799.95 237.206 3800.06 237.417 3800.1C237.657 3800.15 237.934 3800.07 238.488 3799.92L250.121 3796.6C251.922 3796.09 252.822 3795.83 253.187 3796.04C253.502 3796.22 253.695 3796.55 253.693 3796.91C253.69 3797.33 253.018 3797.99 251.673 3799.29L242.986 3807.71C242.572 3808.11 242.365 3808.31 242.288 3808.54C242.22 3808.74 242.22 3808.97 242.288 3809.17C242.365 3809.4 242.572 3809.6 242.986 3810L251.673 3818.42C253.018 3819.72 253.69 3820.38 253.693 3820.8C253.695 3821.16 253.502 3821.49 253.187 3821.67C252.822 3821.88 251.922 3821.62 250.121 3821.11L238.488 3817.79C237.934 3817.64 237.657 3817.56 237.417 3817.61C237.206 3817.65 237.014 3817.76 236.871 3817.92C236.708 3818.11 236.638 3818.38 236.498 3818.94L233.552 3830.68C233.096 3832.49 232.868 3833.4 232.505 3833.61C232.193 3833.79 231.807 3833.79 231.494 3833.61C231.132 3833.4 230.904 3832.49 230.448 3830.68L227.502 3818.94C227.362 3818.38 227.292 3818.11 227.129 3817.92C226.986 3817.76 226.794 3817.65 226.583 3817.61C226.343 3817.56 226.066 3817.64 225.512 3817.79L213.879 3821.11C212.078 3821.62 211.177 3821.88 210.812 3821.67C210.498 3821.49 210.305 3821.16 210.307 3820.8C210.31 3820.38 210.982 3819.72 212.327 3818.42L221.014 3810C221.428 3809.6 221.635 3809.4 221.712 3809.17C221.78 3808.97 221.78 3808.74 221.712 3808.54C221.635 3808.31 221.428 3808.11 221.014 3807.71L212.327 3799.29C210.982 3797.99 210.31 3797.33 210.307 3796.91C210.305 3796.55 210.498 3796.22 210.812 3796.04C211.177 3795.83 212.078 3796.09 213.879 3796.6L225.512 3799.92C226.066 3800.07 226.343 3800.15 226.583 3800.1C226.794 3800.06 226.986 3799.95 227.129 3799.79C227.292 3799.6 227.362 3799.32 227.502 3798.77L230.448 3787.03Z"
          fill="#097FD9"/>
    <path d="M884.448 3963.03C884.904 3961.22 885.132 3960.31 885.494 3960.1C885.807 3959.91 886.193 3959.91 886.505 3960.1C886.868 3960.31 887.096 3961.22 887.552 3963.03L890.498 3974.77C890.638 3975.32 890.708 3975.6 890.871 3975.79C891.014 3975.95 891.206 3976.06 891.417 3976.1C891.657 3976.15 891.934 3976.07 892.488 3975.92L904.121 3972.6C905.922 3972.09 906.822 3971.83 907.187 3972.04C907.502 3972.22 907.695 3972.55 907.693 3972.91C907.69 3973.33 907.018 3973.99 905.673 3975.29L896.986 3983.71C896.572 3984.11 896.365 3984.31 896.288 3984.54C896.22 3984.74 896.22 3984.97 896.288 3985.17C896.365 3985.4 896.572 3985.6 896.986 3986L905.673 3994.42C907.018 3995.72 907.69 3996.38 907.693 3996.8C907.695 3997.16 907.502 3997.49 907.187 3997.67C906.822 3997.88 905.922 3997.62 904.121 3997.11L892.488 3993.79C891.934 3993.64 891.657 3993.56 891.417 3993.61C891.206 3993.65 891.014 3993.76 890.871 3993.92C890.708 3994.11 890.638 3994.38 890.498 3994.94L887.552 4006.68C887.096 4008.49 886.868 4009.4 886.505 4009.61C886.193 4009.79 885.807 4009.79 885.494 4009.61C885.132 4009.4 884.904 4008.49 884.448 4006.68L881.502 3994.94C881.362 3994.38 881.292 3994.11 881.129 3993.92C880.986 3993.76 880.794 3993.65 880.583 3993.61C880.343 3993.56 880.066 3993.64 879.512 3993.79L867.879 3997.11C866.078 3997.62 865.177 3997.88 864.812 3997.67C864.498 3997.49 864.305 3997.16 864.307 3996.8C864.31 3996.38 864.982 3995.72 866.327 3994.42L875.014 3986C875.428 3985.6 875.635 3985.4 875.712 3985.17C875.78 3984.97 875.78 3984.74 875.712 3984.54C875.635 3984.31 875.428 3984.11 875.014 3983.71L866.327 3975.29C864.982 3973.99 864.31 3973.33 864.307 3972.91C864.305 3972.55 864.498 3972.22 864.812 3972.04C865.177 3971.83 866.078 3972.09 867.879 3972.6L879.512 3975.92C880.066 3976.07 880.343 3976.15 880.583 3976.1C880.794 3976.06 880.986 3975.95 881.129 3975.79C881.292 3975.6 881.362 3975.32 881.502 3974.77L884.448 3963.03Z"
          fill="#097FD9"/>
    <path d="M1297.89 3821.28C1298 3820.84 1298.05 3820.62 1298.1 3820.53C1298.46 3819.77 1299.54 3819.77 1299.9 3820.53C1299.95 3820.62 1300 3820.84 1300.11 3821.28V3821.28C1300.15 3821.42 1300.16 3821.49 1300.18 3821.54C1300.35 3821.98 1300.81 3822.25 1301.28 3822.17C1301.34 3822.16 1301.4 3822.14 1301.54 3822.11V3822.11C1301.97 3821.98 1302.19 3821.92 1302.29 3821.91C1303.13 3821.84 1303.68 3822.78 1303.19 3823.48C1303.14 3823.56 1302.98 3823.72 1302.65 3824.03V3824.03C1302.55 3824.13 1302.5 3824.18 1302.46 3824.22C1302.16 3824.59 1302.16 3825.12 1302.46 3825.49C1302.5 3825.53 1302.55 3825.58 1302.65 3825.68V3825.68C1302.98 3825.99 1303.14 3826.15 1303.19 3826.23C1303.68 3826.93 1303.13 3827.87 1302.29 3827.8C1302.19 3827.79 1301.97 3827.73 1301.54 3827.6V3827.6C1301.4 3827.57 1301.34 3827.55 1301.28 3827.54C1300.81 3827.46 1300.35 3827.73 1300.18 3828.17C1300.16 3828.22 1300.15 3828.29 1300.11 3828.43V3828.43C1300 3828.87 1299.95 3829.09 1299.9 3829.17C1299.54 3829.94 1298.46 3829.94 1298.1 3829.17C1298.05 3829.09 1298 3828.87 1297.89 3828.43V3828.43C1297.85 3828.29 1297.84 3828.22 1297.82 3828.17C1297.65 3827.73 1297.19 3827.46 1296.72 3827.54C1296.66 3827.55 1296.6 3827.57 1296.46 3827.6V3827.6C1296.03 3827.73 1295.81 3827.79 1295.71 3827.8C1294.87 3827.87 1294.32 3826.93 1294.81 3826.23C1294.86 3826.15 1295.02 3825.99 1295.35 3825.68V3825.68C1295.45 3825.58 1295.5 3825.53 1295.54 3825.49C1295.84 3825.12 1295.84 3824.59 1295.54 3824.22C1295.5 3824.18 1295.45 3824.13 1295.35 3824.03V3824.03C1295.02 3823.72 1294.86 3823.56 1294.81 3823.48C1294.32 3822.78 1294.87 3821.84 1295.71 3821.91C1295.81 3821.92 1296.03 3821.98 1296.46 3822.11V3822.11C1296.6 3822.14 1296.66 3822.16 1296.72 3822.17C1297.19 3822.25 1297.65 3821.98 1297.82 3821.54C1297.84 3821.49 1297.85 3821.42 1297.89 3821.28V3821.28Z"
          fill="#097FD9"/>
    <path d="M1235.97 3414.68C1235.93 3414.23 1235.9 3414.01 1235.91 3413.91C1235.99 3413.07 1237.02 3412.7 1237.61 3413.3C1237.68 3413.37 1237.81 3413.55 1238.06 3413.93V3413.93C1238.14 3414.05 1238.18 3414.1 1238.22 3414.15C1238.53 3414.51 1239.05 3414.6 1239.46 3414.37C1239.51 3414.34 1239.57 3414.3 1239.68 3414.22V3414.22C1240.05 3413.96 1240.24 3413.82 1240.32 3413.78C1241.09 3413.43 1241.93 3414.13 1241.71 3414.95C1241.68 3415.05 1241.58 3415.25 1241.38 3415.66V3415.66C1241.32 3415.78 1241.29 3415.84 1241.27 3415.9C1241.11 3416.35 1241.29 3416.84 1241.7 3417.09C1241.75 3417.12 1241.81 3417.15 1241.94 3417.2V3417.2C1242.35 3417.39 1242.56 3417.48 1242.64 3417.54C1243.33 3418.03 1243.14 3419.1 1242.32 3419.32C1242.23 3419.35 1242 3419.36 1241.55 3419.39V3419.39C1241.41 3419.4 1241.34 3419.41 1241.28 3419.42C1240.81 3419.51 1240.47 3419.91 1240.47 3420.38C1240.46 3420.44 1240.47 3420.51 1240.49 3420.65V3420.65C1240.53 3421.1 1240.55 3421.33 1240.54 3421.43C1240.46 3422.27 1239.44 3422.64 1238.84 3422.04C1238.77 3421.97 1238.65 3421.78 1238.39 3421.41V3421.41C1238.32 3421.29 1238.28 3421.23 1238.24 3421.19C1237.93 3420.83 1237.41 3420.73 1236.99 3420.96C1236.94 3420.99 1236.89 3421.03 1236.77 3421.11V3421.11C1236.4 3421.38 1236.22 3421.51 1236.13 3421.55C1235.36 3421.9 1234.53 3421.2 1234.75 3420.38C1234.77 3420.29 1234.87 3420.09 1235.07 3419.68V3419.68C1235.14 3419.55 1235.17 3419.49 1235.19 3419.44C1235.34 3418.99 1235.16 3418.49 1234.76 3418.25C1234.71 3418.22 1234.64 3418.19 1234.52 3418.13V3418.13C1234.1 3417.94 1233.9 3417.85 1233.82 3417.8C1233.13 3417.31 1233.32 3416.23 1234.14 3416.01C1234.23 3415.99 1234.46 3415.97 1234.91 3415.94V3415.94C1235.05 3415.93 1235.12 3415.93 1235.18 3415.92C1235.64 3415.83 1235.98 3415.43 1235.99 3414.95C1235.99 3414.89 1235.98 3414.82 1235.97 3414.68V3414.68Z"
          fill="#097FD9"/>
    <path d="M207.948 739.083C208.404 737.267 208.632 736.359 208.994 736.147C209.306 735.964 209.693 735.964 210.005 736.147C210.367 736.359 210.595 737.267 211.051 739.083L211.11 739.316C211.25 739.875 211.32 740.155 211.483 740.338C211.626 740.499 211.818 740.609 212.029 740.653C212.269 740.702 212.546 740.623 213.1 740.465L213.331 740.4C215.132 739.886 216.033 739.63 216.398 739.837C216.712 740.016 216.905 740.351 216.903 740.713C216.9 741.133 216.228 741.784 214.883 743.087L214.71 743.254C214.297 743.655 214.09 743.856 214.013 744.089C213.945 744.293 213.945 744.514 214.013 744.719C214.09 744.951 214.297 745.152 214.71 745.553L214.883 745.72C216.228 747.023 216.9 747.675 216.903 748.094C216.905 748.456 216.712 748.791 216.398 748.97C216.033 749.177 215.132 748.921 213.331 748.408L213.1 748.342C212.546 748.184 212.269 748.105 212.029 748.154C211.818 748.198 211.626 748.308 211.483 748.469C211.32 748.653 211.25 748.932 211.11 749.491L211.051 749.724C210.595 751.54 210.367 752.448 210.005 752.661C209.693 752.843 209.306 752.843 208.994 752.661C208.632 752.448 208.404 751.54 207.948 749.724L207.889 749.491C207.749 748.932 207.679 748.653 207.516 748.469C207.373 748.308 207.181 748.198 206.97 748.154C206.73 748.105 206.453 748.184 205.899 748.342L205.668 748.408C203.867 748.921 202.966 749.177 202.602 748.97C202.287 748.791 202.094 748.456 202.096 748.094C202.099 747.675 202.771 747.023 204.116 745.72L204.289 745.553C204.702 745.152 204.909 744.951 204.987 744.719C205.054 744.514 205.054 744.293 204.987 744.089C204.909 743.856 204.702 743.655 204.289 743.254L204.116 743.087C202.771 741.784 202.099 741.133 202.096 740.713C202.094 740.351 202.287 740.016 202.602 739.837C202.966 739.63 203.867 739.886 205.668 740.4L205.899 740.465C206.453 740.623 206.73 740.702 206.97 740.653C207.181 740.609 207.373 740.499 207.516 740.338C207.679 740.155 207.749 739.875 207.889 739.316L207.948 739.083Z"
          fill="#097FD9"/>
    <path d="M1075.95 829.18C1076.4 827.364 1076.63 826.456 1076.99 826.244C1077.31 826.061 1077.69 826.061 1078.01 826.244C1078.37 826.456 1078.6 827.364 1079.05 829.18L1079.11 829.413C1079.25 829.972 1079.32 830.252 1079.48 830.435C1079.63 830.596 1079.82 830.706 1080.03 830.75C1080.27 830.799 1080.55 830.72 1081.1 830.562L1081.33 830.497C1083.13 829.983 1084.03 829.727 1084.4 829.934C1084.71 830.113 1084.91 830.448 1084.9 830.81C1084.9 831.23 1084.23 831.881 1082.88 833.184L1082.71 833.352C1082.3 833.753 1082.09 833.953 1082.01 834.186C1081.95 834.39 1081.95 834.611 1082.01 834.816C1082.09 835.048 1082.3 835.249 1082.71 835.65L1082.88 835.817C1084.23 837.12 1084.9 837.772 1084.9 838.191C1084.91 838.553 1084.71 838.888 1084.4 839.067C1084.03 839.274 1083.13 839.018 1081.33 838.505L1081.1 838.439C1080.55 838.281 1080.27 838.202 1080.03 838.251C1079.82 838.295 1079.63 838.405 1079.48 838.566C1079.32 838.75 1079.25 839.029 1079.11 839.588L1079.05 839.821C1078.6 841.637 1078.37 842.545 1078.01 842.758C1077.69 842.94 1077.31 842.94 1076.99 842.758C1076.63 842.545 1076.4 841.637 1075.95 839.821L1075.89 839.588C1075.75 839.029 1075.68 838.75 1075.52 838.566C1075.37 838.405 1075.18 838.295 1074.97 838.251C1074.73 838.202 1074.45 838.281 1073.9 838.439L1073.67 838.505C1071.87 839.018 1070.97 839.274 1070.6 839.067C1070.29 838.888 1070.09 838.553 1070.1 838.191C1070.1 837.772 1070.77 837.12 1072.12 835.817L1072.29 835.65C1072.7 835.249 1072.91 835.048 1072.99 834.816C1073.05 834.611 1073.05 834.39 1072.99 834.186C1072.91 833.953 1072.7 833.753 1072.29 833.352L1072.12 833.184C1070.77 831.881 1070.1 831.23 1070.1 830.81C1070.09 830.448 1070.29 830.113 1070.6 829.934C1070.97 829.727 1071.87 829.983 1073.67 830.497L1073.9 830.562C1074.45 830.72 1074.73 830.799 1074.97 830.75C1075.18 830.706 1075.37 830.596 1075.52 830.435C1075.68 830.252 1075.75 829.972 1075.89 829.413L1075.95 829.18Z"
          fill="#097FD9"/>
</svg>
