<svg width="23" height="23" viewBox="0 0 23 23" fill="none" xmlns="http://www.w3.org/2000/svg">
<path id="Vector" fill-rule="evenodd" clip-rule="evenodd" d="M11.5 0.433594C5.425 0.433594 0.5 5.35859 0.5 11.4336C0.5 17.5086 5.425 22.4336 11.5 22.4336C17.575 22.4336 22.5 17.5086 22.5 11.4336C22.5 5.35859 17.575 0.433594 11.5 0.433594ZM16.268 9.57359C16.3558 9.47324 16.4226 9.35633 16.4646 9.22976C16.5065 9.10319 16.5227 8.96951 16.5123 8.83658C16.5018 8.70365 16.4648 8.57416 16.4036 8.45572C16.3423 8.33729 16.258 8.2323 16.1555 8.14694C16.0531 8.06157 15.9346 7.99756 15.8071 7.95866C15.6796 7.91976 15.5455 7.90676 15.4129 7.92042C15.2802 7.93409 15.1517 7.97414 15.0347 8.03823C14.9178 8.10231 14.8149 8.18914 14.732 8.29359L10.432 13.4526L8.207 11.2266C8.0184 11.0444 7.7658 10.9436 7.5036 10.9459C7.2414 10.9482 6.99059 11.0534 6.80518 11.2388C6.61977 11.4242 6.5146 11.675 6.51233 11.9372C6.51005 12.1994 6.61084 12.452 6.793 12.6406L9.793 15.6406C9.89126 15.7388 10.0089 15.8154 10.1384 15.8657C10.2679 15.9159 10.4065 15.9385 10.5453 15.9322C10.684 15.9259 10.82 15.8908 10.9444 15.829C11.0688 15.7673 11.1791 15.6803 11.268 15.5736L16.268 9.57359Z" fill="white"/>
</svg>
